<svg xmlns="http://www.w3.org/2000/svg" viewBox="0 0 140 57"><defs><style>.cls-1{fill:#6d5efc;}.cls-2{fill:#01c8e9;}</style></defs><g id="_480x250" data-name="480x250"><path class="cls-1" d="M87.29,27.71Q84.6,25.33,79,25.32H66.53V56.11h6.2V44.93H79c3.75,0,6.52-.79,8.31-2.39S90,38.47,90,35.13,89.08,29.31,87.29,27.71ZM82.47,38.86a4.58,4.58,0,0,1-3.32,1.24H72.73V30.16h6.42a4.62,4.62,0,0,1,3.32,1.23,4.9,4.9,0,0,1,1.3,3.74A4.89,4.89,0,0,1,82.47,38.86Z"/><path class="cls-1" d="M108,27.47a5.58,5.58,0,0,0-2.09-2.07,6.47,6.47,0,0,0-3-.61,6.59,6.59,0,0,0-3,.61,5.31,5.31,0,0,0-2.09,2.07,17.71,17.71,0,0,0-1.67,4.09L88.65,56.11h6.21l2.06-7.17H109L111,56.11h6.21l-7.53-24.55A17.21,17.21,0,0,0,108,27.47ZM98.29,44.32,102,31.65c.21-.76.53-1.14,1-1.14s.76.38,1,1.14l3.69,12.67Z"/><polygon class="cls-1" points="132.55 25.32 126.22 37.24 119.75 25.32 112.85 25.32 122.96 42.91 122.96 56.11 129.16 56.11 129.16 42.91 139.5 25.32 132.55 25.32"/><polygon class="cls-2" points="43.81 6.85 29.05 6.85 36.43 21.99 43.81 6.85"/><path class="cls-1" d="M69.54.54,69.83,0l-14,.1L39.65,33.25l2.27,5c-.91,3-3,4.29-4.88,4.29A4.39,4.39,0,0,1,33,40L15.39.75h0L15.26.48l0-.1h0L15,0H0L19.66,45.86q2.49,5.79,6,8.16a15.75,15.75,0,0,0,9.12,2.35,15.77,15.77,0,0,0,9.09-2.43q3.45-2.4,6-8.21L69.63.54Z"/></g></svg>